<svg width="279" height="346" viewBox="0 0 279 346" fill="none" xmlns="http://www.w3.org/2000/svg">
<ellipse cx="139.068" cy="172.956" rx="91.6116" ry="150.183" transform="rotate(20.8512 139.068 172.956)" fill="#60D079"/>
<path d="M103.303 271.992C103.385 267.204 92.4131 263.132 78.7953 262.897C65.1776 262.662 54.0712 266.352 53.9884 271.14C53.9057 275.927 64.878 279.999 78.4957 280.235C92.1135 280.47 103.22 276.78 103.303 271.992Z" fill="#080717"/>
<path d="M125.126 250.97C125.174 248.214 116.833 245.835 106.496 245.656C96.1597 245.478 87.7415 247.567 87.6939 250.323C87.6463 253.078 95.9872 255.457 106.324 255.636C116.661 255.815 125.079 253.725 125.126 250.97Z" fill="#080717"/>
<path d="M165.336 103.601C164.948 103.601 164.575 103.465 164.276 103.21C163.941 102.927 163.736 102.529 163.7 102.092C163.665 101.654 163.801 101.229 164.085 100.894C164.369 100.56 164.766 100.356 165.204 100.32C165.643 100.285 166.067 100.42 166.402 100.704C166.736 100.988 166.94 101.385 166.977 101.823C167.013 102.26 166.876 102.685 166.593 103.02C166.309 103.355 165.912 103.559 165.474 103.595C165.428 103.598 165.382 103.6 165.336 103.6V103.601ZM165.34 101.006C165.313 101.006 165.287 101.007 165.261 101.009C165.008 101.03 164.778 101.148 164.613 101.342C164.449 101.536 164.37 101.782 164.391 102.035C164.412 102.288 164.531 102.518 164.724 102.682C164.917 102.846 165.164 102.925 165.417 102.904C165.67 102.883 165.899 102.765 166.064 102.571C166.228 102.378 166.307 102.132 166.286 101.879C166.265 101.626 166.147 101.396 165.953 101.231C165.78 101.085 165.565 101.005 165.34 101.005V101.006Z" fill="black"/>
<path d="M169.175 101.955C168.786 101.955 168.414 101.819 168.115 101.565C167.78 101.281 167.576 100.884 167.54 100.445C167.504 100.008 167.64 99.5825 167.925 99.2477C168.209 98.913 168.607 98.709 169.043 98.6725C169.946 98.5987 170.742 99.2729 170.816 100.176C170.89 101.079 170.216 101.874 169.313 101.948C169.266 101.952 169.221 101.953 169.175 101.953V101.955ZM169.179 99.3603C169.153 99.3603 169.126 99.3611 169.1 99.3634C168.847 99.3839 168.617 99.5026 168.453 99.6959C168.288 99.8899 168.209 100.136 168.23 100.389C168.25 100.642 168.369 100.872 168.562 101.037C168.756 101.201 169.002 101.28 169.256 101.259C169.778 101.216 170.169 100.756 170.126 100.233C170.085 99.737 169.668 99.3596 169.179 99.3596V99.3603Z" fill="black"/>
<path d="M166.637 102.34C166.458 102.34 166.307 102.203 166.292 102.022L165.867 96.8505C165.856 96.7052 165.936 96.5683 166.067 96.5074L169.901 94.7444C170.003 94.6973 170.123 94.7033 170.22 94.7604C170.318 94.8175 170.382 94.9187 170.391 95.0313L170.816 100.203C170.832 100.394 170.69 100.561 170.5 100.577C170.305 100.592 170.142 100.45 170.126 100.26L169.742 95.5814L166.578 97.0362L166.983 101.966C166.999 102.156 166.856 102.324 166.666 102.34C166.656 102.34 166.647 102.34 166.637 102.34H166.637Z" fill="black"/>
<path d="M117.491 64.4264C117.491 64.4264 125.593 59.8512 124.349 57.3898C122.8 54.3242 117.962 57.2521 117.918 59.61C117.873 61.9672 120.675 56.078 117.652 55.1437C115.292 54.4132 112.61 57.2117 117.491 64.4271V64.4264Z" fill="black"/>
<path d="M105.491 87.7348C105.491 85.6371 107.192 83.9365 109.289 83.9365C111.387 83.9365 113.088 85.6371 113.088 87.7348C113.088 89.2254 112.227 90.512 110.978 91.1337V91.9554H107.602V91.1337C106.352 90.512 105.492 89.2254 105.492 87.7348H105.491Z" fill="white"/>
<path d="M111.4 92.875H107.179V93.5674H111.4V92.875Z" fill="black"/>
<path d="M109.636 88.1572H108.943V91.5332H109.636V88.1572Z" fill="black"/>
<path d="M110.134 87.8105H108.445V88.5029H110.134V87.8105Z" fill="black"/>
<path d="M111.746 87.7344H111.054C111.054 86.762 110.262 85.9707 109.29 85.9707V85.2783C110.644 85.2783 111.747 86.3801 111.747 87.7344H111.746Z" fill="black"/>
<path d="M178.018 140.4L185.249 232.257L182.83 233.058C176.198 235.257 168.992 234.972 162.553 232.257C162.535 232.222 160.993 132.952 162.553 127.796C164.142 122.54 169.539 105.956 169.593 105.79C169.653 105.601 169.847 105.489 170.041 105.529C170.166 105.555 173.102 106.185 173.309 108.657C173.462 110.487 173.389 116.922 173.355 119.269C174.972 117.87 179.205 113.952 181.124 109.762C181.213 109.566 181.444 109.48 181.64 109.571C181.752 109.621 181.822 109.72 181.85 109.83C181.896 109.806 181.946 109.788 181.999 109.784C182.008 109.784 182.018 109.788 182.027 109.788C181.686 109.241 181.282 108.61 180.841 107.954C179.898 106.551 179.566 105.235 179.857 104.045C180.241 102.472 181.579 101.725 181.633 101.695C181.644 101.689 181.657 101.689 181.668 101.684C181.627 101.633 181.583 101.579 181.544 101.533C179.13 98.6192 182.01 94.4002 182.134 94.2214C182.206 94.1186 182.321 94.0555 182.447 94.0547C182.573 94.0524 182.691 94.1103 182.766 94.2107L185.536 97.9139C185.623 96.8677 185.983 93.074 186.75 91.8771C187.625 90.5113 190.431 89.51 190.549 89.4674C190.668 89.4255 190.8 89.4438 190.903 89.5169C191.006 89.5891 191.067 89.7071 191.067 89.8334L191.116 105.211C191.116 105.256 191.1 105.297 191.086 105.337L192.904 107.767C192.964 107.848 192.991 107.948 192.979 108.047C192.979 108.047 190.871 125.15 190.825 125.207L178.018 140.4V140.4Z" fill="#F7CA4A"/>
<path d="M193.112 107.915C193.007 107.915 192.903 107.867 192.834 107.776L185.334 97.746C185.219 97.5931 185.251 97.3762 185.404 97.2613C185.557 97.1472 185.774 97.1776 185.889 97.3313L193.389 107.36C193.504 107.513 193.472 107.73 193.319 107.845C193.256 107.892 193.184 107.914 193.112 107.914V107.915Z" fill="#080717"/>
<path d="M192.137 114.891C192.031 114.891 191.927 114.843 191.859 114.752C190.026 112.287 183.887 104.07 181.875 101.779C181.748 101.635 181.763 101.416 181.907 101.29C182.05 101.164 182.269 101.178 182.395 101.322C184.37 103.569 190.06 111.173 192.414 114.338C192.528 114.492 192.496 114.709 192.344 114.823C192.281 114.87 192.209 114.892 192.137 114.892L192.137 114.891Z" fill="#080717"/>
<path d="M174.486 129.238C174.416 129.238 174.345 129.216 174.283 129.172C174.129 129.059 174.094 128.843 174.206 128.688C177.308 124.416 182.002 123.307 183.097 123.101L184.087 119.447C183.479 118.759 180.912 115.801 180.194 114.097C179.342 112.077 181.264 109.364 181.346 109.249C181.405 109.167 181.497 109.114 181.598 109.106C181.699 109.097 181.798 109.133 181.87 109.205L189.154 116.402C189.29 116.537 189.291 116.756 189.157 116.892C189.023 117.029 188.803 117.029 188.667 116.896L181.685 109.996C181.231 110.739 180.286 112.533 180.831 113.828C181.586 115.618 184.696 119.09 184.727 119.125C184.805 119.212 184.834 119.333 184.804 119.447L183.708 123.495C183.672 123.629 183.56 123.727 183.423 123.747C183.37 123.755 178.046 124.578 174.766 129.094C174.699 129.188 174.593 129.237 174.486 129.237L174.486 129.238Z" fill="#080717"/>
<path d="M104.166 140.4L96.935 250.397C104.029 254.057 112.453 254.071 119.559 250.434L119.631 250.397C119.649 250.362 121.191 132.951 119.631 127.796C118.042 122.54 112.645 105.956 112.591 105.79C112.531 105.601 112.337 105.489 112.143 105.529C112.018 105.555 109.082 106.185 108.875 108.657C108.722 110.487 108.796 116.922 108.829 119.269C107.212 117.87 102.979 113.952 101.06 109.762C100.971 109.566 100.74 109.48 100.544 109.571C100.432 109.621 100.362 109.72 100.334 109.83C100.288 109.806 100.238 109.788 100.185 109.784C100.176 109.784 100.166 109.788 100.157 109.788C100.498 109.241 100.902 108.61 101.343 107.954C102.286 106.551 102.618 105.235 102.327 104.045C101.943 102.472 100.605 101.725 100.551 101.695C100.54 101.689 100.528 101.689 100.516 101.684C100.558 101.633 100.601 101.579 100.64 101.533C103.054 98.6192 100.174 94.4002 100.05 94.2214C99.9778 94.1186 99.8629 94.0555 99.7366 94.0547C99.611 94.0524 99.4931 94.1103 99.4178 94.2107L96.6482 97.9139C96.5614 96.8677 96.2015 93.074 95.4338 91.8771C94.5588 90.5113 91.7535 89.51 91.6348 89.4674C91.5161 89.4255 91.3837 89.4438 91.2809 89.5169C91.1782 89.5891 91.1166 89.7071 91.1166 89.8334L91.0679 105.211C91.0679 105.256 91.0839 105.297 91.0976 105.337L89.2798 107.767C89.2197 107.848 89.1931 107.948 89.2053 108.047C89.2053 108.047 91.3129 125.15 91.3593 125.207L104.166 140.4V140.4Z" fill="#FFE16F"/>
<path d="M89.072 107.915C88.9997 107.915 88.9267 107.893 88.865 107.846C88.7121 107.731 88.6809 107.514 88.795 107.361L96.295 97.3323C96.4099 97.1786 96.6267 97.1482 96.7797 97.2623C96.9326 97.3772 96.9638 97.5941 96.8497 97.747L89.3497 107.777C89.282 107.868 89.1778 107.916 89.072 107.916V107.915Z" fill="#080717"/>
<path d="M90.0483 114.892C89.9767 114.892 89.9037 114.87 89.8421 114.823C89.6884 114.709 89.6572 114.492 89.7713 114.338C92.1262 111.173 97.8168 103.569 99.7913 101.322C99.9176 101.178 100.137 101.164 100.28 101.29C100.424 101.416 100.437 101.635 100.312 101.779C98.2992 104.069 92.1605 112.287 90.3275 114.752C90.2598 114.843 90.1548 114.891 90.0498 114.891L90.0483 114.892Z" fill="#080717"/>
<path d="M107.698 129.237C107.59 129.237 107.485 129.188 107.417 129.094C104.137 124.578 98.8136 123.755 98.7603 123.747C98.6241 123.728 98.5123 123.629 98.4757 123.496L97.3793 119.447C97.3481 119.334 97.377 119.213 97.4562 119.125C97.4873 119.09 100.598 115.617 101.352 113.828C101.897 112.534 100.952 110.739 100.498 109.996L93.5163 116.896C93.3801 117.03 93.161 117.029 93.0263 116.893C92.8917 116.756 92.8932 116.537 93.0294 116.403L100.314 109.205C100.386 109.133 100.485 109.097 100.586 109.106C100.688 109.114 100.78 109.167 100.838 109.249C100.92 109.364 102.842 112.076 101.99 114.096C101.272 115.801 98.7048 118.758 98.0968 119.446L99.0867 123.101C100.182 123.307 104.875 124.416 107.978 128.687C108.09 128.841 108.055 129.058 107.901 129.171C107.839 129.216 107.768 129.237 107.698 129.237Z" fill="#080717"/>
<path d="M156.941 126.899H152.833V127.592H156.941V126.899Z" fill="#038450"/>
<path d="M155.234 125.191H154.542V129.301H155.234V125.191Z" fill="#038450"/>
<path d="M134.509 114.697C135.65 114.697 136.694 115.272 137.303 116.234L146.594 130.915C147.568 132.454 147.109 134.498 145.569 135.472L130.888 144.763C130.359 145.099 129.749 145.276 129.126 145.276C127.985 145.276 126.941 144.702 126.331 143.739L117.04 129.058C116.569 128.312 116.416 127.428 116.609 126.568C116.802 125.707 117.32 124.973 118.065 124.501L132.746 115.21C133.276 114.875 133.885 114.697 134.509 114.697ZM134.509 114.005C133.779 114.005 133.039 114.205 132.377 114.625L117.695 123.916C115.831 125.096 115.276 127.564 116.456 129.429L125.747 144.11C126.507 145.311 127.803 145.969 129.127 145.969C129.857 145.969 130.597 145.769 131.26 145.349L145.941 136.058C147.805 134.878 148.36 132.41 147.18 130.546L137.889 115.864C137.129 114.663 135.833 114.005 134.509 114.006V114.005Z" fill="#080717"/>
<path d="M127.46 131.478C129.287 130.615 130.069 128.435 129.207 126.608C128.344 124.781 126.164 123.999 124.337 124.861C122.51 125.724 121.728 127.904 122.59 129.731C123.453 131.558 125.633 132.34 127.46 131.478Z" fill="white"/>
<path d="M125.747 144.109L123.638 140.776L124.188 138.328C124.595 136.519 126.391 135.382 128.201 135.789C129.913 136.174 131.615 135.097 132 133.384L134.161 123.774C134.673 121.492 136.939 120.057 139.221 120.571L141.14 121.002L147.178 130.545C148.359 132.409 147.803 134.877 145.939 136.057L131.258 145.348C129.394 146.528 126.925 145.973 125.745 144.109H125.747Z" fill="#080717"/>
<path d="M161.48 103.086L149.59 101.445L137.7 99.8027L143.361 110.387L149.023 120.971L151.596 112.579L158.669 117.505L161.573 113.336L154.5 108.41L161.48 103.086Z" fill="#080717"/>
<path d="M156.393 94.6331V91.1627C153.52 90.7115 151.391 88.2433 151.391 85.2994C151.391 82.0261 154.054 79.3623 157.328 79.3623H179.396C182.669 79.3623 185.333 82.0254 185.333 85.2994C185.333 88.5735 182.67 91.2358 179.396 91.2358H160.009L156.393 94.6323V94.6331ZM157.328 80.0555C154.436 80.0555 152.084 82.4081 152.084 85.2994C152.084 87.9929 154.101 90.2345 156.776 90.5145L157.086 90.5472V93.0322L159.735 90.5441H179.396C182.288 90.5441 184.64 88.1915 184.64 85.3002C184.64 82.4089 182.287 80.0562 179.396 80.0562H157.328V80.0555Z" fill="#038450"/>
<path d="M178.661 83.7764H158.064V84.4688H178.661V83.7764Z" fill="#038450"/>
<path d="M178.661 86.1309H158.064V86.8233H178.661V86.1309Z" fill="#038450"/>
<path d="M122.64 101.393C122.57 101.393 122.5 101.372 122.443 101.332L116.787 97.4072C116.674 97.3289 116.618 97.1919 116.645 97.0572C116.671 96.9225 116.773 96.816 116.907 96.7856L122.182 95.5743C122.276 95.5522 122.376 95.572 122.456 95.6275L128.111 99.5521C128.224 99.6305 128.28 99.7675 128.253 99.9021C128.228 100.037 128.125 100.143 127.991 100.174L122.717 101.384C122.691 101.39 122.665 101.393 122.639 101.393H122.64ZM117.826 97.2847L122.712 100.675L127.073 99.6739L122.188 96.2834L117.826 97.2847Z" fill="black"/>
<path d="M120.53 107.818C120.433 107.818 120.34 107.777 120.274 107.705C120.19 107.613 120.162 107.482 120.201 107.364L122.311 100.939C122.349 100.824 122.444 100.736 122.563 100.71L127.837 99.4991C127.96 99.471 128.086 99.5106 128.171 99.6034C128.255 99.6955 128.282 99.8263 128.244 99.945L126.134 106.37C126.096 106.485 126.001 106.572 125.883 106.6L120.607 107.81C120.582 107.816 120.556 107.819 120.53 107.819V107.818ZM122.908 101.34L121.05 106.997L125.536 105.967L127.394 100.311L122.908 101.34Z" fill="black"/>
<path d="M120.53 107.818C120.46 107.818 120.391 107.797 120.333 107.757L114.677 103.832C114.551 103.745 114.497 103.585 114.545 103.44L116.655 97.0147C116.69 96.9104 116.771 96.829 116.874 96.794C116.977 96.7598 117.092 96.7758 117.182 96.8382L122.837 100.763C122.963 100.85 123.017 101.01 122.969 101.155L120.859 107.58C120.825 107.684 120.744 107.766 120.64 107.801C120.604 107.813 120.567 107.819 120.53 107.819V107.818ZM115.284 103.411L120.346 106.924L122.231 101.186L117.169 97.6728L115.284 103.411Z" fill="black"/>
<path d="M98.6689 63.2035L97.2103 66.0819C96.4045 67.6714 96.4418 69.3522 97.2925 69.8353L140.447 93.5138L144.823 84.8779L101.667 61.2001C100.817 60.717 99.4739 61.6141 98.6681 63.2035H98.6689Z" fill="#F7CA4A"/>
<path d="M98.6217 70.5909L102.998 61.9549L101.668 61.2001C100.818 60.717 99.4746 61.6141 98.6689 63.2035L97.2103 66.0819C96.4045 67.6714 96.4418 69.3522 97.2925 69.8353L98.6217 70.5901V70.5909Z" fill="#080717"/>
<path d="M140.493 93.5513L151.458 94.3137L144.877 84.8994L140.493 93.5513Z" fill="white"/>
<path d="M146.303 93.9556L151.458 94.3139L148.36 89.8818L146.303 93.9556Z" fill="#080717"/>
<path d="M136.829 94.0097L136.51 95.2012L137.179 95.3801L137.498 94.1887L136.829 94.0097Z" fill="#038450"/>
<path d="M136.829 94.0097L136.51 95.2012L137.179 95.3801L137.498 94.1887L136.829 94.0097Z" fill="#038450"/>
<path d="M133.071 95.0259L132.581 95.5156L133.454 96.3875L133.943 95.8977L133.071 95.0259Z" fill="#038450"/>
<path d="M132.76 98.9601L131.569 99.2793L131.748 99.9481L132.94 99.6289L132.76 98.9601Z" fill="#038450"/>
<path d="M134.824 101.499L134.505 102.69L135.174 102.869L135.492 101.678L134.824 101.499Z" fill="#038450"/>
<path d="M138.552 100.5L138.062 100.99L138.935 101.862L139.424 101.372L138.552 100.5Z" fill="#038450"/>
<path d="M140.251 96.9385L139.06 97.2588L139.24 97.9274L140.431 97.6072L140.251 96.9385Z" fill="#038450"/>
<path d="M160.277 137.422L160.298 137.423C160.327 137.426 160.357 137.427 160.386 137.427C160.39 137.427 160.394 137.427 160.397 137.427C160.4 137.427 160.404 137.427 160.407 137.427C160.437 137.427 160.467 137.425 160.496 137.423H160.515C160.537 137.423 160.561 137.427 160.584 137.429C160.634 137.436 160.684 137.441 160.734 137.444C160.797 137.449 160.86 137.454 160.93 137.461C163.413 137.699 165.848 139.921 167.805 141.706C168.505 142.345 169.116 142.902 169.661 143.307C169.116 143.712 168.504 144.27 167.805 144.908C165.848 146.694 163.413 148.916 160.924 149.154C160.861 149.161 160.798 149.165 160.734 149.171C160.684 149.174 160.633 149.179 160.583 149.185C160.559 149.188 160.535 149.192 160.515 149.193L160.494 149.191C160.466 149.189 160.438 149.187 160.409 149.187C160.404 149.187 160.4 149.187 160.396 149.187C160.391 149.187 160.387 149.187 160.383 149.187C160.355 149.187 160.326 149.19 160.298 149.191L160.281 149.193C160.257 149.193 160.233 149.188 160.209 149.185C160.159 149.179 160.108 149.174 160.058 149.171C159.994 149.166 159.931 149.161 159.862 149.153C157.379 148.916 154.943 146.693 152.987 144.908C152.293 144.275 151.677 143.713 151.131 143.307C151.677 142.902 152.293 142.339 152.987 141.707C154.944 139.921 157.379 137.7 159.869 137.461C159.932 137.455 159.995 137.45 160.058 137.445C160.108 137.442 160.158 137.436 160.208 137.43C160.232 137.427 160.256 137.423 160.276 137.423L160.277 137.422ZM160.512 136.729C160.474 136.729 160.435 136.734 160.397 136.735C160.359 136.735 160.321 136.729 160.282 136.729C160.192 136.729 160.103 136.748 160.014 136.753C159.942 136.758 159.87 136.764 159.798 136.772C155.964 137.139 152.392 141.693 150.407 142.969C150.011 143.224 150.011 143.391 150.407 143.646C152.392 144.923 155.964 149.476 159.798 149.843C159.869 149.851 159.942 149.857 160.014 149.862C160.104 149.867 160.192 149.886 160.282 149.886C160.321 149.886 160.359 149.881 160.397 149.88C160.436 149.88 160.474 149.886 160.512 149.886C160.602 149.886 160.691 149.868 160.78 149.862C160.852 149.857 160.925 149.851 160.996 149.843C164.72 149.487 168.196 145.182 170.211 143.765C170.685 143.431 170.672 143.179 170.188 142.834C168.168 141.4 164.705 137.127 160.996 136.772C160.925 136.764 160.852 136.758 160.78 136.753C160.69 136.749 160.602 136.729 160.512 136.729Z" fill="#080717"/>
<path d="M162.677 143.656C161.749 143.656 160.997 142.904 160.997 141.976C160.997 141.194 161.534 140.543 162.258 140.355C161.705 139.995 161.046 139.783 160.336 139.783C158.389 139.783 156.811 141.361 156.811 143.308C156.811 145.255 158.389 146.833 160.336 146.833C162.283 146.833 163.86 145.255 163.86 143.308C163.86 143.263 163.855 143.219 163.853 143.174C163.55 143.472 163.135 143.657 162.677 143.657V143.656Z" fill="#080717"/>
<path d="M147.751 69.7882C146.952 69.7882 146.301 69.1376 146.301 68.3379C146.301 67.5382 146.952 66.8877 147.751 66.8877C148.551 66.8877 149.202 67.5382 149.202 68.3379C149.202 69.1376 148.551 69.7882 147.751 69.7882ZM147.751 67.5809C147.334 67.5809 146.994 67.921 146.994 68.3379C146.994 68.7549 147.335 69.0958 147.751 69.0958C148.168 69.0958 148.509 68.7556 148.509 68.3379C148.509 67.9202 148.169 67.5809 147.751 67.5809Z" fill="#080717"/>
<path d="M151.465 69.7882C150.666 69.7882 150.015 69.1376 150.015 68.3379C150.015 67.5382 150.666 66.8877 151.465 66.8877C152.265 66.8877 152.916 67.5382 152.916 68.3379C152.916 69.1376 152.265 69.7882 151.465 69.7882ZM151.465 67.5809C151.048 67.5809 150.708 67.921 150.708 68.3379C150.708 68.7549 151.048 69.0958 151.465 69.0958C151.882 69.0958 152.222 68.7556 152.222 68.3379C152.222 67.9202 151.883 67.5809 151.465 67.5809Z" fill="#080717"/>
<path d="M155.18 69.7882C154.38 69.7882 153.73 69.1376 153.73 68.3379C153.73 67.5382 154.38 66.8877 155.18 66.8877C155.98 66.8877 156.63 67.5382 156.63 68.3379C156.63 69.1376 155.98 69.7882 155.18 69.7882ZM155.18 67.5809C154.762 67.5809 154.423 67.921 154.423 68.3379C154.423 68.7549 154.763 69.0958 155.18 69.0958C155.597 69.0958 155.937 68.7556 155.937 68.3379C155.937 67.9202 155.598 67.5809 155.18 67.5809Z" fill="#080717"/>
<path d="M146.934 57.298L141.254 51.618L144.959 47.9126C145.485 47.3868 146.186 47.0977 146.934 47.0977C147.682 47.0977 148.384 47.3876 148.91 47.9126L150.64 49.6428C151.166 50.1686 151.455 50.8701 151.455 51.618C151.455 52.366 151.165 53.0675 150.64 53.5933L146.935 57.2987L146.934 57.298ZM142.233 51.618L146.934 56.3187L150.149 53.1033C150.544 52.7084 150.762 52.1811 150.762 51.618C150.762 51.055 150.544 50.5277 150.149 50.1328L148.419 48.4026C148.024 48.0077 147.497 47.7901 146.934 47.7901C146.371 47.7901 145.843 48.0077 145.448 48.4026L142.233 51.618Z" fill="#038450"/>
<path d="M143.448 54.623L124.636 73.4414L125.126 73.9309L143.938 55.1125L143.448 54.623Z" fill="#038450"/>
<path d="M119.84 78.7132L121.969 70.9028L122.035 70.8374L140.85 52.0225L141.34 52.5117L122.589 71.262L120.826 77.7256L127.29 75.9634L146.04 57.2124L146.53 57.7024L127.649 76.5828L119.84 78.7132Z" fill="#038450"/>
<path d="M143.934 48.1286L143.445 48.6182L146.689 51.8619L147.178 51.3723L143.934 48.1286Z" fill="#038450"/>
<path d="M80.6348 166.052L79.7795 166.033L80.2201 145.175C80.2566 142.051 81.6977 140.67 83.4378 140.707L88.0297 140.804C89.7699 140.841 91.1516 142.282 91.1143 144.022L90.8724 156.225C90.7628 161.767 86.177 166.169 80.6348 166.052Z" fill="#FFE16F"/>
<path d="M107.315 143.098H106.692V154.104H107.315V143.098Z" fill="#038450"/>
<path d="M43.355 143.097H110.02C111.686 143.097 113.037 144.755 113.037 146.801V150.504C113.037 152.549 111.686 154.207 110.02 154.207H43.355V143.097V143.097Z" fill="#038450"/>
<path d="M107.822 153.804V143.503H110.02C111.46 143.503 112.633 144.983 112.633 146.802V150.505C112.633 152.325 111.461 153.804 110.02 153.804H107.822Z" fill="white"/>
<path d="M110.02 143.906C111.237 143.906 112.228 145.205 112.228 146.801V150.504C112.228 152.1 111.237 153.398 110.02 153.398H108.226V143.906H110.02V143.906ZM110.02 143.098H107.417V154.208H110.02C111.686 154.208 113.037 152.55 113.037 150.505V146.802C113.037 144.756 111.686 143.098 110.02 143.098V143.098Z" fill="#080717"/>
<path d="M30.8386 148.652L42.9708 143.718V153.587L30.8386 148.652Z" fill="white"/>
<path d="M42.5659 144.319V152.987L31.9121 148.653L42.5659 144.319ZM43.3747 143.117L29.7649 148.653L43.3747 154.189V143.118V143.117Z" fill="#080717"/>
<path d="M36.4271 151.363V145.943L29.7649 148.653L36.4271 151.363Z" fill="#038450"/>
<path d="M94.0185 275.125C92.2593 252.721 86.6128 159.735 86.6128 159.735L62.1499 163.388L62.3279 275.125L64.8046 276.166C74.2227 280.129 84.907 279.748 94.0185 275.125Z" fill="#FFE16F"/>
<path d="M66.516 167.141C60.499 167.014 55.7253 162.033 55.8523 156.016L56.1673 141.123C56.2039 139.383 57.645 138.002 59.3851 138.039L63.977 138.136C65.7171 138.173 67.0981 139.614 67.0616 141.354L66.5168 167.14L66.516 167.141Z" fill="#FFE16F"/>
<path d="M73.1446 167.046L66.5638 166.906C65.3731 166.881 64.4273 165.895 64.4524 164.704L64.9515 141.075C64.988 139.334 66.4291 137.953 68.1693 137.99L72.7612 138.087C74.5013 138.124 75.883 139.565 75.8458 141.305L75.3459 164.935C75.3208 166.126 74.3347 167.071 73.1439 167.046L73.1446 167.046Z" fill="#FFE16F"/>
<path d="M82.2235 167.552L75.6427 167.413C74.4519 167.388 73.5061 166.402 73.5313 165.211L74.0311 141.581C74.0677 139.841 75.5088 138.46 77.2489 138.497L81.8408 138.594C83.5809 138.631 84.9619 140.072 84.9254 141.812L84.4255 165.442C84.4004 166.632 83.4143 167.578 82.2235 167.553V167.552Z" fill="#FFE16F"/>
<path d="M73.6019 162.232C73.589 162.232 73.5768 162.231 73.5639 162.23C73.3934 162.209 73.2717 162.053 73.2922 161.883C73.3318 161.554 74.1809 153.815 66.6323 152.068C66.4649 152.029 66.3599 151.862 66.3995 151.695C66.4383 151.527 66.6049 151.423 66.7731 151.461C74.8733 153.336 73.9222 161.873 73.9116 161.959C73.8926 162.116 73.7579 162.233 73.6027 162.233L73.6019 162.232Z" fill="black"/>
<path d="M70.6651 153.751C70.5593 153.751 70.4558 153.697 70.3972 153.6C70.309 153.452 70.3569 153.26 70.5045 153.172L73.2216 151.541C74.229 150.937 74.9876 149.991 75.3597 148.876C75.5461 148.316 75.4555 147.72 75.1101 147.242C74.7647 146.763 74.2283 146.488 73.6386 146.488H58.5702L56.1742 152.778C56.1125 152.939 55.9322 153.019 55.7717 152.958C55.6111 152.897 55.5305 152.717 55.5913 152.556L58.0634 146.066C58.1098 145.945 58.2255 145.865 58.3548 145.865H73.6386C74.4314 145.865 75.152 146.234 75.6161 146.877C76.0795 147.521 76.202 148.321 75.9509 149.073C75.5324 150.329 74.6772 151.395 73.5419 152.076L70.8249 153.706C70.7746 153.737 70.7199 153.75 70.6651 153.75V153.751Z" fill="black"/>
<path d="M65.7717 146.025C65.5997 146.025 65.4597 145.885 65.4597 145.713V139.996C65.4597 139.824 65.599 139.684 65.7717 139.684C65.9444 139.684 66.0836 139.823 66.0836 139.996V145.713C66.0836 145.885 65.9444 146.025 65.7717 146.025Z" fill="black"/>
<path d="M74.8886 146.797C74.7167 146.797 74.5767 146.658 74.5767 146.485V140.15C74.5767 139.978 74.7159 139.838 74.8886 139.838C75.0613 139.838 75.2006 139.977 75.2006 140.15V146.485C75.2006 146.657 75.0613 146.797 74.8886 146.797Z" fill="black"/>
<path d="M72.3132 155.914C72.1412 155.914 72.0012 155.775 72.0012 155.603C72.0012 155.43 72.1405 155.291 72.3132 155.291C73.4142 155.291 74.4162 154.683 74.9268 153.706C75.0067 153.553 75.1954 153.495 75.3468 153.575C75.4997 153.655 75.5583 153.843 75.4784 153.996C74.8598 155.179 73.647 155.914 72.3124 155.914L72.3132 155.914Z" fill="black"/>
<path d="M85.2099 154.288L83.9933 154.262C82.2531 154.226 80.8721 152.785 80.9087 151.045L81.0395 144.855C81.0761 143.115 82.5172 141.734 84.2573 141.77L88.6247 141.862L88.4269 151.204C88.3904 152.944 86.9493 154.325 85.2091 154.288H85.2099Z" fill="#FFE16F"/>
<path d="M85.7045 154.494C83.7438 154.494 82.1482 152.899 82.1482 150.938V144.638C82.1482 143.261 82.5393 141.918 83.2789 140.756C83.3709 140.61 83.5642 140.568 83.7087 140.66C83.8541 140.752 83.8967 140.945 83.8046 141.09C83.129 142.152 82.7713 143.378 82.7713 144.637V150.937C82.7713 152.555 84.0869 153.87 85.7045 153.87C87.3222 153.87 88.6377 152.555 88.6377 150.937V146.794C88.6377 146.622 88.7769 146.482 88.9497 146.482C89.1224 146.482 89.2616 146.621 89.2616 146.794V150.937C89.2616 152.898 87.6661 154.493 85.7053 154.493L85.7045 154.494Z" fill="black"/>
<path d="M78.6747 155.955C76.4149 155.955 74.5774 154.068 74.5774 151.749V150.502C74.5774 150.33 74.7166 150.19 74.8894 150.19C75.0621 150.19 75.2013 150.33 75.2013 150.502V151.749C75.2013 153.724 76.7603 155.332 78.6755 155.332C80.5906 155.332 82.1496 153.725 82.1496 151.749V151.282C82.1496 151.11 82.2889 150.97 82.4616 150.97C82.6343 150.97 82.7736 151.109 82.7736 151.282V151.749C82.7736 154.068 80.9353 155.955 78.6762 155.955H78.6747Z" fill="black"/>
<path d="M51.9471 180.133L24.0686 163.441C24.0686 163.441 26.8268 167.844 26.7088 172.698C26.5909 177.553 25.5211 186.389 25.5211 186.389C25.5211 186.389 39.5456 183.093 41.9949 182.566C44.4434 182.038 51.9471 180.133 51.9471 180.133Z" fill="white"/>
<path d="M25.5212 186.693C25.4466 186.693 25.3743 186.666 25.318 186.615C25.2442 186.549 25.2069 186.451 25.2191 186.352C25.2298 186.264 26.2889 177.475 26.4053 172.691C26.5194 167.989 23.8381 163.647 23.8107 163.603C23.7362 163.484 23.7529 163.329 23.8518 163.229C23.95 163.128 24.1052 163.109 24.2254 163.181L52.1031 179.872C52.2089 179.935 52.266 180.056 52.2485 180.177C52.2302 180.299 52.1412 180.398 52.0225 180.429C51.9472 180.448 44.4853 182.341 42.0596 182.864C39.6415 183.385 25.7319 186.653 25.5919 186.686C25.5691 186.691 25.5455 186.694 25.5227 186.694L25.5212 186.693ZM24.8851 164.285C25.6992 165.875 27.0992 169.149 27.0132 172.706C26.9113 176.906 26.0895 184.155 25.8742 185.993C28.2367 185.438 39.7473 182.739 41.9302 182.268C43.9024 181.842 49.2308 180.504 51.1612 180.017L24.8858 164.285H24.8851Z" fill="#080717"/>
<path d="M58.6028 178.875L32.3084 160.304C32.3084 160.304 25.7109 186.681 25.2406 187.778C24.7704 188.875 25.2764 188.791 25.2764 188.791C25.2764 188.791 36.3053 184.429 40.764 185.083C45.2228 185.738 54.4469 188.458 54.4469 188.458L58.6035 178.875H58.6028Z" fill="white"/>
<path d="M25.252 189.097C25.1265 189.097 24.969 189.049 24.8586 188.908C24.6669 188.664 24.6996 188.266 24.9606 187.658C25.3251 186.808 29.7336 169.344 32.0132 160.23C32.0375 160.132 32.1083 160.053 32.2026 160.018C32.2962 159.983 32.402 159.997 32.4841 160.055L58.7785 178.626C58.8965 178.709 58.9398 178.864 58.882 178.996L54.7253 188.578C54.6645 188.719 54.507 188.792 54.3601 188.749C54.268 188.721 45.1056 186.027 40.7191 185.383C36.392 184.749 25.497 189.03 25.3874 189.073C25.3677 189.081 25.3471 189.087 25.3258 189.09C25.303 189.094 25.2779 189.097 25.252 189.097V189.097ZM32.4963 160.809C31.6107 164.347 25.9672 186.856 25.5206 187.898C25.4042 188.17 25.3631 188.338 25.3509 188.435C26.8689 187.846 36.5853 184.161 40.8089 184.782C44.8195 185.371 52.744 187.646 54.2749 188.091L58.2261 178.981L32.4971 160.809H32.4963Z" fill="#080717"/>
<path d="M74.4638 196.657L51.1566 184.327C51.1566 184.327 42.9087 183.411 36.3317 184.508C29.7547 185.606 25.7783 188.307 25.7783 188.307C25.7783 188.307 36.6672 186.265 43.0936 189.276C49.5199 192.287 63.5695 198.032 63.5695 198.032L74.4645 196.657L74.4638 196.657Z" fill="white"/>
<path d="M63.5691 198.336C63.5295 198.336 63.4907 198.328 63.4542 198.313C63.3135 198.256 49.324 192.531 42.9646 189.552C36.6995 186.616 25.9422 188.585 25.8342 188.605C25.6927 188.632 25.5519 188.556 25.4964 188.422C25.4416 188.289 25.4872 188.136 25.6067 188.054C25.771 187.942 29.7139 185.303 36.2818 184.207C42.8246 183.116 51.1075 184.014 51.1904 184.023C51.2285 184.027 51.2657 184.038 51.2992 184.057L74.6064 196.387C74.7236 196.449 74.7875 196.581 74.7639 196.711C74.7395 196.842 74.6338 196.941 74.5021 196.958L63.6079 198.333C63.595 198.334 63.5828 198.335 63.5699 198.335L63.5691 198.336ZM33.7123 187.324C37.6521 187.324 40.8455 187.887 43.2225 189C49.3285 191.861 62.4993 197.264 63.611 197.719L73.4704 196.475L51.0672 184.622C50.3253 184.545 42.5583 183.777 36.3822 184.807C32.1845 185.508 29.036 186.882 27.3461 187.758C28.4897 187.607 30.1453 187.428 32.0148 187.357C32.5953 187.335 33.1614 187.324 33.7131 187.324H33.7123Z" fill="#080717"/>
<path d="M59.9273 199.369C59.9273 199.369 51.7799 201.367 49.2675 202.933C48.5454 203.383 33.8308 196.624 24.4157 192.404C19.0569 190.002 28.9353 187.315 29.6627 187.286C35.6873 187.047 47.2816 192.519 48.4313 192.883C49.581 193.247 59.9273 199.369 59.9273 199.369Z" fill="#FFE16F"/>
<path d="M49.8603 191.591C49.8603 191.591 41.4709 186.624 37.1225 186.421C32.7741 186.219 27.6838 186.583 25.7786 188.307C23.8733 190.03 28.8807 180.066 27.6237 173.544C26.3667 167.022 24.0696 163.442 24.0696 163.442L21.5808 162.424C21.5808 162.424 25.0413 170.954 25.3373 177.405C25.6332 183.855 22.6476 190.095 22.6476 190.095C22.6476 190.095 22.309 191.058 23.327 191.556C24.3443 192.053 24.8777 192.049 24.8777 192.049C24.8777 192.049 25.4917 188.802 32.2848 188.304C38.0675 187.88 50.2659 195.375 50.2659 195.375L49.8595 191.592L49.8603 191.591Z" fill="white"/>
<path d="M50.2658 195.678C50.211 195.678 50.1555 195.663 50.106 195.633C49.9851 195.558 37.9236 188.205 32.3061 188.606C25.8211 189.081 25.1812 192.074 25.1759 192.103C25.1493 192.246 25.0245 192.35 24.8792 192.351C24.8084 192.349 24.2438 192.341 23.1915 191.827C22.194 191.339 22.2108 190.413 22.3584 189.992C22.3622 189.981 22.366 189.971 22.3713 189.961C22.401 189.9 25.3205 183.713 25.0321 177.417C24.7415 171.094 21.332 162.622 21.297 162.536C21.2506 162.423 21.2772 162.293 21.3639 162.206C21.4507 162.119 21.5808 162.094 21.6941 162.14L24.183 163.158C24.2408 163.182 24.2903 163.223 24.3237 163.275C24.4188 163.424 26.668 166.979 27.9212 173.485C28.6889 177.47 27.1671 182.695 26.2579 185.816C26.0136 186.653 25.7641 187.511 25.675 187.99C28.1281 185.933 34.486 185.992 37.1346 186.115C41.5089 186.318 49.6685 191.122 50.014 191.327C50.0961 191.376 50.1517 191.461 50.1616 191.556L50.5679 195.339C50.5801 195.455 50.526 195.568 50.4279 195.629C50.3784 195.66 50.3221 195.676 50.2651 195.676L50.2658 195.678ZM32.7755 187.982C38.0888 187.982 47.5411 193.395 49.8983 194.797L49.5742 191.776C48.4937 191.15 41.0387 186.908 37.108 186.725C31.673 186.472 27.5133 187.148 25.9832 188.532C25.8622 188.642 25.5396 188.933 25.2436 188.749C24.8602 188.508 25.0169 187.907 25.675 185.648C26.5691 182.579 28.0657 177.443 27.3254 173.602C26.197 167.745 24.1997 164.248 23.8626 163.686L22.121 162.973C22.9329 165.114 25.395 172.003 25.6416 177.39C25.9299 183.666 23.1139 189.816 22.9313 190.206C22.8971 190.318 22.7487 190.934 23.4609 191.282C24.03 191.559 24.4348 191.67 24.6623 191.714C24.9788 190.876 26.3994 188.43 32.2627 188C32.4286 187.988 32.6005 187.982 32.7755 187.982Z" fill="#080717"/>
<path d="M73.8954 201.889L49.8601 191.591L50.2657 195.374L74.5148 205.643L73.8954 201.889Z" fill="white"/>
<path d="M74.5149 205.948C74.4746 205.948 74.4343 205.94 74.3962 205.924L50.1471 195.654C50.0451 195.611 49.9751 195.516 49.9629 195.407L49.5566 191.624C49.5452 191.517 49.5916 191.411 49.6784 191.347C49.7659 191.282 49.88 191.269 49.9789 191.312L74.015 201.61C74.1109 201.651 74.1786 201.737 74.1953 201.84L74.8147 205.595C74.833 205.705 74.7896 205.815 74.7028 205.884C74.6481 205.927 74.5819 205.95 74.5142 205.95L74.5149 205.948ZM50.5496 195.163L74.1246 205.148L73.6224 202.103L50.2178 192.076L50.5496 195.163Z" fill="#080717"/>
<path d="M104.935 215.099L115.663 207.818L114.613 205.169L109.14 208.113C107.161 209.177 105.722 211.139 105.277 213.377L104.935 215.098V215.099Z" fill="white"/>
<path d="M104.935 215.403C104.876 215.403 104.818 215.386 104.767 215.352C104.664 215.284 104.612 215.16 104.637 215.039L104.978 213.318C105.44 210.995 106.941 208.949 108.996 207.845L114.469 204.901C114.545 204.86 114.637 204.853 114.718 204.882C114.8 204.912 114.865 204.975 114.897 205.056L115.947 207.705C115.999 207.839 115.953 207.989 115.835 208.069L105.107 215.35C105.055 215.385 104.996 215.402 104.936 215.402L104.935 215.403ZM114.456 205.599L109.284 208.381C107.388 209.401 106.002 211.291 105.575 213.437L105.378 214.43L115.29 207.703L114.456 205.598V205.599Z" fill="#080717"/>
<path d="M68.7195 231.338L67.5645 228.822L88.7617 201.207L100.862 208.125C102.816 209.242 104.308 211.037 105.104 213.229L105.113 213.253L84.3395 238.118L68.7187 231.338H68.7195Z" fill="white"/>
<path d="M84.3403 238.422C84.2992 238.422 84.2581 238.413 84.2193 238.397L68.5985 231.617C68.53 231.588 68.4745 231.534 68.4433 231.465L67.2883 228.948C67.2411 228.845 67.2548 228.725 67.3233 228.636L88.5205 201.022C88.6134 200.902 88.7808 200.868 88.9132 200.943L101.014 207.861C103.02 209.009 104.575 210.877 105.391 213.126L105.401 213.151C105.437 213.253 105.417 213.366 105.348 213.449L84.5746 238.314C84.5153 238.385 84.4293 238.423 84.341 238.423L84.3403 238.422ZM68.9478 231.105L84.2528 237.747L104.767 213.192C103.987 211.142 102.551 209.439 100.711 208.388L88.8416 201.602L67.9183 228.859L68.9478 231.104V231.105Z" fill="#080717"/>
<path d="M117.108 206.533L96.7523 231.582L84.7571 239.099L67.6594 231.622L89.4372 204.255L105.439 213.109L117.108 206.533Z" fill="#038450"/>
<path d="M84.7572 239.404C84.691 239.404 84.624 239.382 84.5677 239.338C84.4361 239.234 84.414 239.042 84.519 238.91L105.201 212.919C105.305 212.788 105.497 212.766 105.629 212.871C105.76 212.975 105.782 213.167 105.677 213.298L84.9953 239.289C84.9352 239.364 84.8469 239.404 84.7572 239.404Z" fill="white"/>
<path d="M89.4365 204.56C89.2965 204.56 89.171 204.464 89.1398 204.321L88.4641 201.273C88.4276 201.108 88.5311 200.946 88.6954 200.91C88.8605 200.873 89.0218 200.977 89.0584 201.141L89.734 204.19C89.7705 204.354 89.6671 204.516 89.5027 204.553C89.4807 204.557 89.4586 204.56 89.4365 204.56Z" fill="#080717"/>
<path d="M190.318 293.032C190.387 289.088 179.403 285.7 165.785 285.464C152.167 285.229 141.072 288.236 141.004 292.18C140.936 296.125 151.92 299.513 165.538 299.748C179.156 299.984 190.25 296.977 190.318 293.032Z" fill="#080717"/>
<path d="M130.658 184.448V180.183C127.193 179.614 124.632 176.628 124.632 173.069C124.632 169.093 127.866 165.858 131.842 165.858H139.094C143.071 165.858 146.305 169.093 146.305 173.069C146.305 177.046 143.071 180.28 139.094 180.28H135.095L130.658 184.448H130.658ZM131.842 166.809C128.39 166.809 125.581 169.617 125.581 173.07C125.581 176.285 127.989 178.962 131.183 179.296L131.608 179.341V182.254L134.719 179.331H139.094C142.546 179.331 145.356 176.523 145.356 173.071C145.356 169.619 142.547 166.809 139.094 166.809H131.842V166.809Z" fill="#038450"/>
<path d="M139.931 171.343H131.006V172.292H139.931V171.343Z" fill="#038450"/>
<path d="M139.931 174.179H131.006V175.128H139.931V174.179Z" fill="#038450"/>
<path d="M202.986 255.309L194.682 253.877L186.377 252.443L190.1 260.003L193.823 267.563L195.826 261.736L200.672 265.36L202.809 262.503L197.962 258.88L202.986 255.309Z" fill="#080717"/>
<path d="M158.028 154.577L155.176 157.43L155.693 157.946L158.545 155.093L158.028 154.577Z" fill="#080717"/>
<path d="M155.691 154.566L155.175 155.082L158.027 157.935L158.544 157.418L155.691 154.566Z" fill="#080717"/>
<path d="M221.744 229.995L221.123 230.129C220.978 230.16 220.797 230.083 220.723 229.955L220.547 229.699C220.456 229.583 220.443 229.389 220.524 229.265L220.869 228.73C220.949 228.606 220.913 228.439 220.789 228.36L219.963 227.825C219.839 227.746 219.672 227.782 219.591 227.905L219.247 228.44C219.166 228.564 218.985 228.635 218.841 228.598L218.536 228.542C218.39 228.526 218.244 228.396 218.213 228.251L218.079 227.63C218.048 227.486 217.903 227.393 217.76 227.424L216.797 227.632C216.653 227.663 216.561 227.807 216.593 227.951L216.727 228.572C216.758 228.717 216.679 228.896 216.552 228.971L216.296 229.148C216.18 229.241 215.985 229.251 215.862 229.171L215.327 228.826C215.203 228.746 215.037 228.783 214.957 228.905L214.423 229.733C214.344 229.856 214.38 230.023 214.503 230.104L215.037 230.448C215.161 230.528 215.233 230.711 215.196 230.853L215.142 231.158C215.126 231.306 214.994 231.451 214.85 231.482L214.228 231.616C214.085 231.648 213.991 231.791 214.022 231.935L214.23 232.895C214.261 233.04 214.405 233.132 214.549 233.101L215.171 232.966C215.316 232.935 215.495 233.013 215.57 233.14L215.747 233.396C215.839 233.511 215.848 233.707 215.769 233.831L215.424 234.365C215.345 234.489 215.381 234.656 215.504 234.736L216.332 235.269C216.455 235.349 216.622 235.313 216.701 235.189L217.047 234.654C217.126 234.531 217.308 234.459 217.451 234.495L217.757 234.55C217.904 234.566 218.05 234.697 218.081 234.843L218.215 235.464C218.246 235.609 218.389 235.702 218.532 235.67L219.495 235.463C219.638 235.431 219.733 235.288 219.702 235.143L219.568 234.521C219.536 234.377 219.615 234.197 219.741 234.122L219.996 233.945C220.112 233.853 220.306 233.843 220.431 233.923L220.966 234.269C221.09 234.349 221.258 234.312 221.337 234.189L221.87 233.363C221.95 233.239 221.914 233.071 221.79 232.992L221.255 232.647C221.131 232.567 221.061 232.383 221.097 232.241L221.152 231.934C221.168 231.788 221.299 231.642 221.445 231.611L222.066 231.477C222.211 231.446 222.303 231.303 222.272 231.158L222.064 230.198C222.033 230.054 221.89 229.961 221.745 229.992L221.744 229.995ZM218.419 232.816C217.719 232.967 217.029 232.522 216.879 231.823C216.727 231.123 217.172 230.433 217.872 230.282C218.571 230.131 219.261 230.576 219.412 231.276C219.563 231.975 219.118 232.665 218.419 232.816Z" fill="#1D1D1B"/>
<path d="M200.49 237.453L199.802 237.204C199.802 237.204 199.849 237.075 199.949 236.85L200.617 237.146C200.533 237.335 200.492 237.446 200.49 237.453Z" fill="#080717"/>
<path d="M200.927 236.51L200.281 236.168C200.397 235.948 200.522 235.727 200.653 235.511L201.279 235.889C201.154 236.093 201.037 236.302 200.927 236.51ZM201.665 235.289L201.062 234.876C201.205 234.669 201.354 234.464 201.507 234.266L202.085 234.713C201.94 234.899 201.8 235.093 201.665 235.289ZM202.536 234.163L201.985 233.683C202.151 233.492 202.324 233.306 202.499 233.128L203.019 233.641C202.854 233.808 202.692 233.984 202.535 234.163H202.536ZM203.534 233.151L203.048 232.605C203.239 232.436 203.434 232.273 203.63 232.12L204.079 232.696C203.896 232.839 203.713 232.992 203.534 233.151ZM204.652 232.279L204.244 231.674C204.454 231.532 204.671 231.396 204.888 231.271L205.252 231.905C205.05 232.022 204.848 232.147 204.652 232.279ZM205.877 231.575L205.559 230.917C205.787 230.806 206.022 230.704 206.255 230.612L206.524 231.291C206.306 231.377 206.09 231.472 205.877 231.575ZM207.19 231.055L206.971 230.358C207.21 230.284 207.456 230.216 207.703 230.157L207.872 230.868C207.642 230.923 207.412 230.986 207.19 231.055ZM208.565 230.729L208.447 230.008C208.692 229.968 208.944 229.934 209.197 229.91L209.268 230.637C209.031 230.661 208.794 230.692 208.565 230.73L208.565 230.729ZM209.976 230.591L209.952 229.861C210.198 229.853 210.45 229.852 210.707 229.859L210.688 230.59C210.446 230.583 210.208 230.583 209.977 230.592L209.976 230.591Z" fill="#080717"/>
<path d="M211.753 230.663C211.636 230.65 211.521 230.639 211.406 230.63L211.467 229.901C211.588 229.911 211.709 229.923 211.833 229.936L211.754 230.663H211.753Z" fill="#080717"/>
<path d="M186.455 245.614L186.043 247.153L186.908 247.385L187.32 245.846L186.455 245.614Z" fill="#038450"/>
<path d="M186.455 245.614L186.043 247.153L186.908 247.385L187.32 245.846L186.455 245.614Z" fill="#038450"/>
<path d="M181.597 246.932L180.964 247.565L182.092 248.692L182.724 248.059L181.597 246.932Z" fill="#038450"/>
<path d="M181.197 252.016L179.657 252.429L179.889 253.294L181.429 252.881L181.197 252.016Z" fill="#038450"/>
<path d="M183.864 255.295L183.452 256.835L184.317 257.066L184.729 255.526L183.864 255.295Z" fill="#038450"/>
<path d="M188.684 254.027L188.051 254.66L189.179 255.787L189.811 255.153L188.684 254.027Z" fill="#038450"/>
<path d="M190.882 249.414L189.342 249.828L189.574 250.692L191.114 250.278L190.882 249.414Z" fill="#038450"/>
<path d="M174.224 291.795L160.779 240.832L194.253 238.07L209.556 218.642C210.471 217.479 210.26 215.793 209.086 214.893C206.481 212.897 202.761 213.335 200.693 215.883L191.737 226.911L156.654 219.835L167.604 212.731C169.675 211.387 169.834 208.415 167.919 206.857C167 206.11 165.774 205.857 164.634 206.179L154.704 208.988C141.005 212.862 133.262 227.338 137.644 240.884L150.654 293.739L156.976 294.872C162.908 295.937 169.026 294.845 174.224 291.794V291.795Z" fill="#FFE16F"/>
<path d="M199.773 210.599C196.784 209.246 193.261 210.518 191.825 213.468L182.886 230.832L193.078 229.991L201.083 214.143C201.711 212.803 201.122 211.209 199.773 210.599Z" fill="#FFE16F"/>
<path d="M188.039 211.625C184.939 210.549 181.545 212.133 180.382 215.201L173.049 233.302L183.124 231.543L189.664 215.037C190.168 213.646 189.437 212.111 188.039 211.626L188.039 211.625Z" fill="#FFE16F"/>
<path d="M190.092 238.825C190.035 238.825 189.976 238.813 189.921 238.788C189.714 238.694 189.623 238.449 189.717 238.242L199.175 217.519C199.27 217.312 199.513 217.222 199.721 217.315C199.928 217.41 200.019 217.655 199.925 217.862L190.467 238.583C190.398 238.735 190.249 238.824 190.092 238.824V238.825Z" fill="#080717"/>
<path d="M180.387 239.627C180.337 239.627 180.286 239.617 180.237 239.598C180.025 239.515 179.921 239.277 180.004 239.064L185.779 224.304C185.862 224.092 186.102 223.987 186.314 224.07C186.526 224.153 186.63 224.392 186.547 224.605L180.771 239.365C180.707 239.528 180.552 239.627 180.388 239.627H180.387Z" fill="#080717"/>
<path d="M162.007 231.969C161.901 231.969 161.799 231.929 161.722 231.855C161.637 231.774 161.59 231.66 161.594 231.542C161.603 231.279 161.714 225.049 154.403 223.202C154.183 223.147 154.049 222.922 154.105 222.702C154.16 222.481 154.384 222.347 154.606 222.403C161.385 224.115 162.287 229.497 162.402 231.11L173.607 230.186L176.173 224.016C176.26 223.806 176.501 223.705 176.711 223.794C176.921 223.881 177.021 224.122 176.933 224.332L174.271 230.734C174.212 230.877 174.078 230.974 173.924 230.987L162.04 231.967C162.029 231.968 162.017 231.968 162.007 231.968V231.969Z" fill="#080717"/>
<path d="M155.033 241.718C154.821 241.718 154.64 241.555 154.623 241.34C154.605 241.113 154.773 240.914 155 240.896L160.743 240.422C160.967 240.401 161.17 240.571 161.188 240.798C161.206 241.025 161.038 241.224 160.811 241.243L155.067 241.717C155.056 241.717 155.044 241.718 155.033 241.718Z" fill="#080717"/>
<path d="M166.282 213.747C164.226 213.747 162.36 212.334 161.874 210.248L153.435 174.035C153.16 172.858 153.361 171.644 153.999 170.617C154.638 169.591 155.638 168.874 156.815 168.599L195.528 159.578C196.705 159.304 197.919 159.504 198.946 160.142C199.972 160.781 200.689 161.781 200.964 162.958L209.403 199.171C209.969 201.602 208.453 204.04 206.023 204.606L167.31 213.628C166.966 213.708 166.621 213.747 166.282 213.747V213.747ZM196.563 160.283C196.28 160.283 195.997 160.316 195.716 160.381L157.003 169.403C156.04 169.627 155.222 170.213 154.7 171.052C154.178 171.892 154.014 172.885 154.238 173.848L162.678 210.061C163.141 212.049 165.134 213.289 167.123 212.826L205.835 203.804C207.824 203.341 209.064 201.347 208.6 199.359L200.161 163.146C199.936 162.183 199.35 161.365 198.511 160.843C197.917 160.473 197.246 160.283 196.563 160.283H196.563Z" fill="#080717"/>
<path d="M200.868 164.414L200.552 163.054C200.036 160.841 197.824 159.466 195.611 159.981L156.899 169.003C154.686 169.519 153.311 171.731 153.826 173.943L154.143 175.302L200.869 164.414H200.868Z" fill="#080717"/>
<path d="M166.93 194.982C165.707 194.982 164.597 194.141 164.308 192.9L164.225 192.548C163.888 191.102 164.791 189.651 166.236 189.314L194.694 182.682C196.14 182.347 197.591 183.248 197.928 184.693L198.01 185.046C198.173 185.746 198.054 186.468 197.674 187.079C197.295 187.69 196.7 188.116 196 188.279L167.542 194.91C167.337 194.958 167.133 194.981 166.931 194.981L166.93 194.982ZM195.306 183.437C195.166 183.437 195.023 183.453 194.881 183.486L166.424 190.118C165.421 190.351 164.795 191.358 165.028 192.361L165.11 192.713C165.344 193.716 166.35 194.343 167.353 194.109L195.811 187.477C196.297 187.363 196.709 187.068 196.973 186.644C197.236 186.221 197.319 185.72 197.206 185.234L197.123 184.881C196.923 184.021 196.153 183.437 195.304 183.437H195.306Z" fill="#080717"/>
<path d="M185.808 187.895L185.726 187.543C185.441 186.318 186.202 185.094 187.427 184.808L195.105 183.019C196.33 182.734 197.555 183.495 197.84 184.719L197.922 185.071C198.208 186.296 197.446 187.52 196.222 187.806L188.543 189.595C187.318 189.88 186.094 189.119 185.808 187.895Z" fill="#080717"/>
<path d="M175.378 182.688C175.191 182.688 175.022 182.56 174.977 182.369C174.926 182.148 175.063 181.926 175.286 181.874L182.44 180.207C182.664 180.156 182.884 180.294 182.935 180.515C182.987 180.736 182.849 180.959 182.627 181.01L175.473 182.677C175.441 182.684 175.41 182.688 175.379 182.688H175.378Z" fill="#080717"/>
<path d="M169.756 180.131C169.569 180.131 169.399 180.003 169.355 179.813C169.303 179.591 169.441 179.369 169.663 179.317L186.353 175.428C186.577 175.377 186.797 175.514 186.848 175.736C186.9 175.957 186.762 176.179 186.54 176.231L169.85 180.121C169.818 180.128 169.787 180.131 169.757 180.131H169.756Z" fill="#080717"/>
<path d="M193.473 185.029L188.519 186.184L188.861 187.651L193.815 186.496L193.473 185.029Z" fill="white"/>
<path d="M157.977 170.683L156.607 171.002L156.949 172.469L158.319 172.15L157.977 170.683Z" fill="white"/>
<path d="M160.88 170.005L159.51 170.324L159.852 171.791L161.222 171.472L160.88 170.005Z" fill="white"/>
<path d="M163.782 169.334L162.412 169.653L162.753 171.12L164.124 170.8L163.782 169.334Z" fill="white"/>
<path d="M206.235 165.78C209.603 162.413 209.603 156.953 206.235 153.585C202.868 150.218 197.408 150.218 194.04 153.585C190.673 156.953 190.673 162.413 194.04 165.78C197.408 169.148 202.868 169.148 206.235 165.78Z" fill="white"/>
<path d="M198.272 163.496L195.908 161.133L196.492 160.55L198.268 162.327L203.981 156.535L204.568 157.114L198.272 163.496Z" fill="#080717"/>
<path d="M135.063 189.721H130.614V194.17H135.063V189.721Z" fill="#7CA0FC"/>
<path d="M135.063 197.755H130.614V202.204H135.063V197.755Z" fill="#7CA0FC"/>
<path d="M135.063 210.494H130.614C130.386 210.494 130.201 210.309 130.201 210.082V205.632C130.201 205.405 130.386 205.22 130.614 205.22H135.063C135.291 205.22 135.476 205.405 135.476 205.632V210.082C135.476 210.309 135.291 210.494 135.063 210.494ZM131.026 209.669H134.651V206.045H131.026V209.669Z" fill="#080717"/>
<path d="M153.881 191.347H137.844V192.171H153.881V191.347Z" fill="#080717"/>
<path d="M133.117 193.082L131.435 191.401L132.017 190.818L133.117 191.916L136.626 188.407L137.209 188.99L133.117 193.082Z" fill="#080717"/>
<path d="M150.18 199.381H137.844V200.206H150.18V199.381Z" fill="#080717"/>
<path d="M146.743 207.26H137.844V208.085H146.743V207.26Z" fill="#080717"/>
<path d="M133.117 201.117L131.435 199.435L132.017 198.852L133.117 199.951L136.626 196.441L137.209 197.024L133.117 201.117Z" fill="#080717"/>
<path d="M139.222 268.187L147.023 259.029L156.75 258.709L148.95 267.867L139.223 268.187H139.222ZM147.474 259.965L141.339 267.167L148.499 266.931L154.633 259.729L147.474 259.965Z" fill="#038450"/>
<path d="M146.996 259.98L140.643 250.197L150.196 249.882L156.548 259.665L146.996 259.98ZM142.356 251.091L147.501 259.013L154.835 258.771L149.69 250.849L142.356 251.091Z" fill="#038450"/>
<path d="M140.23 268.47L133.94 258.786L141.551 249.851L147.841 259.535L140.23 268.469L140.23 268.47ZM135.123 258.862L140.332 266.884L146.657 259.458L141.449 251.436L135.123 258.862L135.123 258.862Z" fill="#038450"/>
<path d="M107.963 325.483C118.538 325.3 127.077 323.277 127.037 320.964C126.997 318.65 118.393 316.923 107.819 317.106C97.2446 317.288 88.705 319.312 88.745 321.625C88.785 323.939 97.3894 325.666 107.963 325.483Z" fill="#080717"/>
<path d="M116.802 283.621L127.617 287.311L127.257 288.369C126.596 290.305 124.492 291.338 122.556 290.677L116.187 288.504L116.802 283.621Z" fill="#F7CA4A"/>
<path d="M117.676 282.939L129.004 281.436L129.151 282.543C129.419 284.57 127.994 286.432 125.967 286.702L119.296 287.586L117.676 282.939Z" fill="#F7CA4A"/>
<path d="M126.344 273.286L117.792 277.487L123.871 289.862C125.479 293.136 125.721 296.916 124.543 300.369L123.449 304.925V320.65C118.116 323.2 112.038 323.73 106.344 322.141L100.997 320.65L107.6 304.925L103.27 287.267L110.368 275.308L127.644 266.822L128.178 267.91C129.156 269.9 128.335 272.307 126.344 273.285V273.286Z" fill="#F7CA4A"/>
<path d="M118.004 280.949L128.261 275.911L128.753 276.914C129.655 278.749 128.898 280.969 127.062 281.87L121.021 284.838L118.004 280.95L118.004 280.949Z" fill="#F7CA4A"/>
<path d="M93.9561 288.758L130.387 271.207L137.537 271.033L133.262 276.364L96.8307 293.915L96.6892 293.823C94.9757 292.71 93.9455 290.801 93.9554 288.757L93.9561 288.758Z" fill="#080717"/>
<path d="M130.387 271.206L137.538 271.032L133.262 276.364L130.387 271.206Z" fill="#F7CA4A"/>
<path d="M98.5276 293.287C98.3937 293.287 98.2643 293.214 98.1981 293.087L95.6378 288.167C95.5434 287.985 95.6142 287.761 95.7953 287.667C95.9771 287.572 96.2008 287.643 96.2952 287.824L98.8555 292.745C98.9499 292.927 98.8791 293.15 98.698 293.245C98.6432 293.273 98.5846 293.287 98.5268 293.287H98.5276Z" fill="#F7CA4A"/>
<path d="M134.401 271.108L137.538 271.032L135.569 273.486L134.401 271.108Z" fill="#080717"/>
<path d="M115.317 289.424L120.58 273.999L120.658 274.032C123.14 275.082 124.537 277.735 123.999 280.375L122.902 288.006L124.517 291.298L115.316 289.424L115.317 289.424Z" fill="#F7CA4A"/>
<path d="M124.518 291.671C124.381 291.671 124.249 291.595 124.184 291.463L122.57 288.17C122.537 288.103 122.525 288.028 122.536 287.954L123.633 280.323C124.116 277.948 122.93 275.56 120.799 274.505L115.668 289.544C115.602 289.738 115.392 289.842 115.197 289.776C115.003 289.709 114.899 289.499 114.966 289.305L120.229 273.879C120.262 273.782 120.334 273.703 120.428 273.66C120.521 273.618 120.629 273.617 120.724 273.657L120.801 273.69C123.436 274.804 124.933 277.647 124.362 280.449L123.286 287.945L124.85 291.135C124.94 291.319 124.865 291.541 124.68 291.631C124.628 291.657 124.572 291.669 124.518 291.669V291.671Z" fill="#080717"/>
<path d="M123.761 282.757C123.589 282.757 123.435 282.638 123.398 282.463C123.356 282.263 123.484 282.066 123.684 282.024L127.289 281.26C127.49 281.219 127.687 281.345 127.729 281.546C127.772 281.746 127.644 281.943 127.443 281.986L123.838 282.75C123.812 282.755 123.786 282.758 123.761 282.758V282.757Z" fill="#080717"/>
<path d="M125.742 287.055C125.702 287.055 125.66 287.048 125.62 287.034L123.161 286.174C122.968 286.107 122.866 285.895 122.933 285.702C123.001 285.509 123.212 285.406 123.406 285.474L125.865 286.334C126.058 286.402 126.16 286.613 126.092 286.807C126.039 286.96 125.895 287.055 125.742 287.055Z" fill="#080717"/>
</svg>
