<svg xmlns="http://www.w3.org/2000/svg" width="64" height="527" viewBox="0 0 64 527" fill="none">
  <path d="M39.5125 -18L40.5695 -10.54L36.6755 -4.3711L34.0666 2.31097L35.3961 7.47558L36.0247 12.2099L35.4906 17.1152L34.9566 22.2302L35.7743 27.8584L32.6147 33.2603L29.5051 37.9394L30.5509 43.7441L33.1598 50.1503L36.1137 56.6613L36.8647 64.2096L36.3306 71.4213L38.0885 78.7822L36.2917 85.0062L40.2413 87.0146L38.8895 89.9722L38.4222 92.8249L44.2743 96.6708L44.1853 103.331L45.487 109.616L49.292 115.487L48.5132 121.705L49.6202 127.239L49.9706 132.983L46.3437 140.25L46.4104 146.182L46.9834 151.424L48.7134 155.413L49.0973 161.626L52.0233 166.631L54.7713 172.524L50.9997 175.995L49.4922 180.547L47.2115 184.95L50.3378 191.395L47.8289 200.074L49.6925 209.035L52.5573 217.615L50.4045 223.359L51.4948 228.761L48.6689 234.373L47.306 239.179L50.5436 244.051L50.6382 248.013L51.8342 252.78L45.7874 255.451L43.4566 260.34L44.5747 267.055L42.7279 275.365L45.1699 285.01L40.7531 294.423L44.9864 300.46L40.1801 304.333L37.5211 306.882L36.8591 310.193L37.6435 315.021L33.8552 318.503L31.3297 323.491L26.1563 328.518L24.5041 334.102L22.4681 339.575L20.5768 345.016L19.887 350.274L16.0153 354.705L16.6717 359.412L14.2741 363.76L13.5232 371.098L12.177 378.481L11.515 386.383L6.20251 392.314L3.64919 395.283L-1.18133e-05 397.744L1.79677 401.91L6.40834 410.341L7.14263 418.436L11.2424 424.891L12.5497 431.066L13.8291 437.439L15.4868 444.248L15.1809 450.924L19.0303 453.595L16.0709 458.009L19.0693 458.103L20.6213 461.59L23.2859 467.875L27.0463 474.375L31.0126 480.853L30.918 486.31L30.2338 491.265L32.776 495.933L27.7417 501.065L29.3994 506.627L24.7211 512.034L25.3052 517.932L26.9907 523.334L22.763 525.806L22.5905 529.382L20.5545 532.433L20.6769 538.889L19.5588 545.334L18.0958 552.231L20.1262 558.93L21.2443 566.042L24.1036 573.32L27.1353 580.582L24.0257 584.753L23.4138 589.542L27.3745 594.514L25.7947 600.115L23.2303 605.825L22.8854 611.244L20.0761 616.293L23.8032 622.263L25.9838 628.095L31.8137 633.216L31.2184 638.292L34.4393 642.607L35.83 647.932L39.7184 652.826L43.6402 657.433L47.4896 661.842L49.8705 665.992L52.6909 668L62.0697 668C57.9421 664.253 55.6113 657.119 51.7897 652.826C48.3018 648.875 48.0292 642.353 44.8807 638.292C46.3771 634.005 43.6012 630.7 40.6251 628.095C39.9632 624.884 37.471 619.112 35.8189 616.293C37.4822 613.539 38.6281 608.949 38.3778 605.825C40.4749 600.457 43.4121 594.122 38.528 589.548C38.4223 586.624 39.7573 582.8 41.5541 580.587C39.4124 574.181 36.1304 565.744 35.8522 558.935C33.2377 552.893 35.5074 545.063 36.2973 538.889C36.364 535.865 35.7577 531.688 37.8549 529.376C37.3153 526.309 38.9619 524.675 41.4317 523.334C35.7744 507.565 45.793 511.857 42.0381 501.07C45.2033 497.715 47.0112 495.381 44.0629 491.271C44.4857 488.683 44.7583 483.479 44.6971 480.858C41.0924 473.989 37.2875 465.486 34.99 458.103C30.0836 458.749 34.6396 455.543 34.9566 453.595C31.4465 452.089 31.6746 447.371 32.0751 444.248C30.0502 436.054 30.1337 425.664 25.2885 418.436C26.0061 411.731 21.5725 403.78 19.4809 397.744C29.4661 390.107 29.1213 382.255 30.4786 371.104C30.7067 368.014 31.0849 361.989 33.0375 359.412C31.9917 356.338 45.2089 355.913 47.5119 353.723C47.8067 346.649 39.3957 335.415 40.7419 328.518C44.7193 325.152 49.1473 319.987 50.0763 315.021C51.4003 307.975 54.2262 298.953 54.2262 298.953C54.2262 298.953 53.7811 290.329 56.1898 285.01C54.7046 280.491 49.1696 261.669 49.1696 261.669C49.1696 261.669 55.233 258.464 58.2648 256.256C58.9991 251.296 56.3734 239.4 59.038 234.362L61.3354 228.75C60.2674 225.842 60.8014 220.38 62.2032 217.61C60.8515 213.367 58.9045 204.505 58.3593 200.069C60.0894 196.217 53.7255 184.1 53.7255 184.1C53.7255 184.1 62.2143 176.684 64 172.513C60.2284 164.407 58.0256 155.005 57.2023 146.171C55.9562 140.123 61.3299 133.265 59.8168 127.228C58.9657 124.348 58.9379 118.427 59.5553 115.475C57.6417 112.877 49.5868 102.928 49.8872 99.8215C49.8872 99.8215 48.7079 91.9476 49.381 90.6012C49.381 90.6012 46.4438 80.2664 43.5233 78.8759C37.471 75.9901 41.6209 67.4044 42.917 61.0369C43.3231 52.3795 37.7658 47.3306 37.2596 38.7891C39.7963 34.3693 49.7704 27.5163 47.8957 22.2247C48.2573 17.9264 59.7389 13.3355 58.8767 9.02612C55.2942 0.33563 58.8767 -18 58.8767 -18L39.4847 -18L39.5125 -18Z" fill="white"/>
</svg>